<svg width="34" height="34" viewBox="0 0 34 34" fill="none" xmlns="http://www.w3.org/2000/svg">
<path d="M18.9615 25.5C18.9615 25.888 18.8465 26.2672 18.631 26.5898C18.4154 26.9123 18.1091 27.1638 17.7507 27.3122C17.3922 27.4607 16.9978 27.4995 16.6173 27.4238C16.2368 27.3482 15.8873 27.1613 15.613 26.887C15.3387 26.6127 15.1518 26.2632 15.0762 25.8827C15.0005 25.5022 15.0393 25.1078 15.1878 24.7493C15.3362 24.3909 15.5877 24.0846 15.9102 23.869C16.2328 23.6535 16.612 23.5385 17 23.5385C17.5202 23.5385 18.0192 23.7451 18.387 24.113C18.7549 24.4808 18.9615 24.9798 18.9615 25.5ZM17 7.84615C13.394 7.84615 10.4615 10.4861 10.4615 13.7308V14.3846C10.4615 14.7314 10.5993 15.0641 10.8446 15.3093C11.0898 15.5545 11.4224 15.6923 11.7692 15.6923C12.1161 15.6923 12.4487 15.5545 12.6939 15.3093C12.9392 15.0641 13.0769 14.7314 13.0769 14.3846V13.7308C13.0769 11.9327 14.8374 10.4615 17 10.4615C19.1626 10.4615 20.9231 11.9327 20.9231 13.7308C20.9231 15.5288 19.1626 17 17 17C16.6532 17 16.3206 17.1378 16.0753 17.383C15.8301 17.6282 15.6923 17.9609 15.6923 18.3077V19.6154C15.6923 19.9622 15.8301 20.2948 16.0753 20.5401C16.3206 20.7853 16.6532 20.9231 17 20.9231C17.3468 20.9231 17.6794 20.7853 17.9247 20.5401C18.1699 20.2948 18.3077 19.9622 18.3077 19.6154V19.4977C21.2892 18.9501 23.5385 16.5717 23.5385 13.7308C23.5385 10.4861 20.606 7.84615 17 7.84615ZM34 17C34 20.3623 33.003 23.6491 31.135 26.4447C29.267 29.2403 26.612 31.4193 23.5056 32.7059C20.3993 33.9926 16.9811 34.3293 13.6835 33.6733C10.3858 33.0174 7.35668 31.3983 4.97919 29.0208C2.6017 26.6433 0.982607 23.6142 0.326658 20.3165C-0.329291 17.0189 0.00736584 13.6007 1.29406 10.4944C2.58074 7.38804 4.75968 4.733 7.55531 2.86502C10.3509 0.997032 13.6377 0 17 0C21.5072 0.0047597 25.8285 1.79735 29.0156 4.98444C32.2026 8.17153 33.9952 12.4928 34 17ZM31.3846 17C31.3846 14.155 30.541 11.3739 28.9604 9.00833C27.3798 6.6428 25.1332 4.79908 22.5048 3.71035C19.8763 2.62161 16.984 2.33675 14.1937 2.89178C11.4034 3.44681 8.84027 4.81682 6.82855 6.82854C4.81682 8.84026 3.44682 11.4034 2.89179 14.1937C2.33675 16.984 2.62162 19.8763 3.71035 22.5048C4.79909 25.1332 6.6428 27.3798 9.00834 28.9604C11.3739 30.541 14.155 31.3846 17 31.3846C20.8137 31.3803 24.47 29.8634 27.1667 27.1667C29.8634 24.47 31.3803 20.8137 31.3846 17Z" fill="black"/>
</svg>
